<svg xmlns="http://www.w3.org/2000/svg" viewBox="0 0 100 100">
  <defs>
    <linearGradient id="bg" x1="0" y1="0" x2="0" y2="1">
      <stop offset="0" stop-color="#2d6a4f"/>
      <stop offset="1" stop-color="#1b4332"/>
    </linearGradient>
  </defs>
  <rect width="100" height="100" rx="22" fill="url(#bg)"/>
  <path d="M50 14 C36.5 14 26 24.5 26 38 C26 55 50 76 50 76 C50 76 74 55 74 38 C74 24.5 63.5 14 50 14 Z" fill="#f2f8f4"/>
  <path d="M50 24 C60 30 61.5 43 50 52 C38.5 43 40 30 50 24 Z" fill="#95d5b2"/>
  <path d="M50 27 L50 49 M50 43 C47 41 45 39.5 43.5 37 M50 43 C53 41 55 39.5 56.5 37 M50 36 C48 34.5 46.5 33 45.8 31 M50 36 C52 34.5 53.5 33 54.2 31"
        fill="none" stroke="#1b4332" stroke-width="1.9" stroke-linecap="round"/>
</svg>
