<svg xmlns="http://www.w3.org/2000/svg" viewBox="0 0 100 100" role="img" aria-label="Invazivke">
  <defs>
    <linearGradient id="lg" x1="0" y1="0" x2="0" y2="1">
      <stop offset="0" stop-color="#40916c"/>
      <stop offset="1" stop-color="#1b4332"/>
    </linearGradient>
  </defs>
  <!-- zemljevidna oznaka (opazovanje na terenu) -->
  <path d="M50 6 C31 6 16 21 16 40 C16 64 50 94 50 94 C50 94 84 64 84 40 C84 21 69 6 50 6 Z" fill="url(#lg)"/>
  <!-- list (vrsta) v negativnem prostoru oznake -->
  <path d="M50 21 C64 29 66 47 50 59 C34 47 36 29 50 21 Z" fill="#d8f3dc"/>
  <path d="M50 25 L50 55 M50 47 C46 44 43 42 41 38 M50 47 C54 44 57 42 59 38 M50 38 C47 36 45 34 44 31 M50 38 C53 36 55 34 56 31"
        fill="none" stroke="#2d6a4f" stroke-width="2.4" stroke-linecap="round"/>
</svg>
